


<svg xmlns="http://www.w3.org/2000/svg" enable-background="new 0 0 20 20" viewBox="0 0 20 20"><path fill="#95da98" d="M4.51,4.61l1.25,7.06c0.15,0.81,0.85,1.39,1.67,1.39h7.74c0.78,0,1.46-0.54,1.65-1.3l1.69-7.16H4.51z"/><path fill="#7fcc7f" d="M16.15,4.61l-1.24,5.26c-0.18,0.76-0.87,1.3-1.65,1.3h-7.6l0.09,0.51c0.15,0.81,0.85,1.39,1.67,1.39h7.74
			c0.78,0,1.46-0.54,1.65-1.3l1.69-7.16H16.15z"/><path fill="#2d4356" d="M15.17,13.57H7.42c-1.06,0-1.97-0.76-2.16-1.8L4.01,4.7C3.99,4.55,4.03,4.4,4.12,4.29
			c0.1-0.11,0.24-0.18,0.38-0.18H18.5c0.15,0,0.3,0.07,0.39,0.19c0.09,0.12,0.13,0.28,0.09,0.42l-1.69,7.16
			C17.06,12.88,16.18,13.57,15.17,13.57z M5.1,5.11l1.14,6.48c0.1,0.57,0.6,0.98,1.18,0.98h7.74c0.55,0,1.03-0.38,1.16-0.92
			l1.54-6.54H5.1z"/><path fill="#7fcc7f" d="M8.03,15.71c-0.77,0-1.39,0.62-1.39,1.39c0,0.77,0.62,1.39,1.39,1.39c0.77,0,1.39-0.62,1.39-1.39
			C9.42,16.34,8.8,15.71,8.03,15.71z"/><path fill="#2d4356" d="M8.03,19c-1.04,0-1.89-0.85-1.89-1.89s0.85-1.89,1.89-1.89s1.89,0.85,1.89,1.89S9.07,19,8.03,19z M8.03,16.21
			c-0.49,0-0.89,0.4-0.89,0.89S7.53,18,8.03,18s0.89-0.4,0.89-0.89S8.52,16.21,8.03,16.21z"/><path fill="#7fcc7f" d="M14.48,15.71c-0.77,0-1.39,0.62-1.39,1.39c0,0.77,0.62,1.39,1.39,1.39c0.77,0,1.39-0.62,1.39-1.39
			C15.87,16.34,15.25,15.71,14.48,15.71z"/><path fill="#2d4356" d="M14.48 19c-1.04 0-1.89-.85-1.89-1.89s.85-1.89 1.89-1.89c1.04 0 1.89.85 1.89 1.89S15.52 19 14.48 19zM14.48 16.21c-.49 0-.89.4-.89.89S13.98 18 14.48 18s.89-.4.89-.89S14.97 16.21 14.48 16.21zM4.5 5.11c-.23 0-.44-.17-.49-.41L3.6 2.57C3.54 2.24 3.25 2 2.91 2H1.5C1.22 2 1 1.78 1 1.5S1.22 1 1.5 1h1.41c.81 0 1.52.58 1.67 1.38L5 4.51C5.05 4.79 4.87 5.05 4.6 5.1 4.57 5.11 4.54 5.11 4.5 5.11zM13.12 9.34H9.89c-.28 0-.5-.22-.5-.5s.22-.5.5-.5h3.23c.28 0 .5.22.5.5S13.39 9.34 13.12 9.34z"/></svg>